<svg width="100" height="100" viewBox="0 0 100 100" fill="none" xmlns="http://www.w3.org/2000/svg">
<rect x="0.225355" y="0.144342" width="10.5" height="9.39899" transform="matrix(0.906308 -0.422618 -0.0048869 0.999988 2.07019 43.744)" fill="black" stroke="white" stroke-width="0.5"/>
<path d="M18.2416 39.3557L18.1957 48.755L8.67942 53.1924L8.72536 43.7931L18.2416 39.3557Z" fill="black" stroke="white" stroke-width="0.5"/>
<rect x="0.225355" y="0.144342" width="10.5" height="9.39899" transform="matrix(0.906308 -0.422618 -0.0048869 0.999988 15.0702 43.744)" fill="black" stroke="white" stroke-width="0.5"/>
<path d="M29.6134 48.089C29.1447 48.089 28.7115 48.0119 28.314 47.8576C27.9224 47.6974 27.5812 47.4749 27.2905 47.1901C26.9998 46.8994 26.7743 46.5582 26.6141 46.1666C26.4598 45.7691 26.3827 45.333 26.3827 44.8583C26.3827 44.3955 26.4658 43.9683 26.6319 43.5767C26.798 43.1851 27.0265 42.8469 27.3172 42.5621C27.6139 42.2714 27.961 42.0459 28.3585 41.8857C28.762 41.7255 29.201 41.6454 29.6757 41.6454C29.9724 41.6454 30.2631 41.684 30.5479 41.7611C30.8327 41.8382 31.0967 41.9539 31.34 42.1082C31.5892 42.2565 31.8028 42.4345 31.9808 42.6422L31.0552 43.7013C30.9306 43.5708 30.7971 43.458 30.6547 43.3631C30.5182 43.2622 30.3669 43.1851 30.2008 43.1317C30.0347 43.0783 29.8567 43.0516 29.6668 43.0516C29.4295 43.0516 29.204 43.0961 28.9904 43.1851C28.7827 43.2682 28.5988 43.3898 28.4386 43.55C28.2843 43.7043 28.1627 43.8941 28.0737 44.1196C27.9847 44.3451 27.9402 44.5972 27.9402 44.8761C27.9402 45.149 27.9847 45.3982 28.0737 45.6237C28.1627 45.8432 28.2873 46.0331 28.4475 46.1933C28.6077 46.3535 28.8005 46.4751 29.026 46.5582C29.2574 46.6413 29.5125 46.6828 29.7914 46.6828C29.9813 46.6828 30.1622 46.6561 30.3343 46.6027C30.5064 46.5493 30.6636 46.4781 30.806 46.3891C30.9543 46.2942 31.0849 46.1874 31.1976 46.0687L31.9274 47.2257C31.7791 47.3918 31.5803 47.5402 31.3311 47.6707C31.0878 47.8012 30.8149 47.9051 30.5123 47.9822C30.2156 48.0534 29.916 48.089 29.6134 48.089ZM35.0365 48.089C34.544 48.089 34.105 47.9822 33.7193 47.7686C33.3396 47.555 33.037 47.2643 32.8115 46.8964C32.592 46.5285 32.4822 46.1073 32.4822 45.6326C32.4822 45.1579 32.592 44.7367 32.8115 44.3688C33.037 44.0009 33.3396 43.7102 33.7193 43.4966C34.105 43.283 34.544 43.1762 35.0365 43.1762C35.529 43.1762 35.9651 43.283 36.3448 43.4966C36.7305 43.7102 37.0331 44.0009 37.2526 44.3688C37.4721 44.7367 37.5819 45.1579 37.5819 45.6326C37.5819 46.1073 37.4721 46.5285 37.2526 46.8964C37.0331 47.2643 36.7305 47.555 36.3448 47.7686C35.9651 47.9822 35.529 48.089 35.0365 48.089ZM35.0365 46.8608C35.2501 46.8608 35.44 46.8074 35.6061 46.7006C35.7722 46.5938 35.9028 46.4484 35.9977 46.2645C36.0926 46.0806 36.1371 45.8699 36.1312 45.6326C36.1371 45.3953 36.0926 45.1846 35.9977 45.0007C35.9028 44.8108 35.7722 44.6625 35.6061 44.5557C35.44 44.4489 35.2501 44.3955 35.0365 44.3955C34.8229 44.3955 34.6301 44.4489 34.458 44.5557C34.2919 44.6625 34.1613 44.8108 34.0664 45.0007C33.9715 45.1846 33.927 45.3953 33.9329 45.6326C33.927 45.8699 33.9715 46.0806 34.0664 46.2645C34.1613 46.4484 34.2919 46.5938 34.458 46.7006C34.6301 46.8074 34.8229 46.8608 35.0365 46.8608ZM40.302 48.0979C39.8926 48.0979 39.5277 47.9941 39.2073 47.7864C38.8928 47.5728 38.6436 47.2821 38.4597 46.9142C38.2757 46.5404 38.1838 46.1162 38.1838 45.6415C38.1838 45.1668 38.2757 44.7456 38.4597 44.3777C38.6436 44.0039 38.8958 43.7102 39.2162 43.4966C39.5366 43.283 39.9044 43.1762 40.3198 43.1762C40.5334 43.1762 40.7381 43.2088 40.9339 43.2741C41.1297 43.3394 41.3077 43.4284 41.4679 43.5411C41.6281 43.6538 41.7586 43.7844 41.8595 43.9327C41.9603 44.0751 42.0197 44.2234 42.0375 44.3777L41.6993 44.4578V41.414H43.1322V48H41.8061L41.726 46.9231L42.0108 46.9676C41.993 47.1159 41.9336 47.2583 41.8328 47.3948C41.7378 47.5313 41.6132 47.6529 41.459 47.7597C41.3047 47.8606 41.1267 47.9407 40.925 48C40.7292 48.0653 40.5215 48.0979 40.302 48.0979ZM40.6669 46.9142C40.8864 46.9142 41.0763 46.8608 41.2365 46.754C41.3967 46.6472 41.5183 46.4989 41.6014 46.309C41.6904 46.1191 41.7349 45.8966 41.7349 45.6415C41.7349 45.3804 41.6904 45.155 41.6014 44.9651C41.5183 44.7752 41.3967 44.6269 41.2365 44.5201C41.0763 44.4133 40.8864 44.3599 40.6669 44.3599C40.4473 44.3599 40.2575 44.4133 40.0973 44.5201C39.943 44.6269 39.8214 44.7752 39.7324 44.9651C39.6434 45.155 39.5989 45.3804 39.5989 45.6415C39.5989 45.8966 39.6434 46.1191 39.7324 46.309C39.8214 46.4989 39.943 46.6472 40.0973 46.754C40.2575 46.8608 40.4473 46.9142 40.6669 46.9142ZM46.588 48.089C46.0659 48.089 45.612 47.9852 45.2263 47.7775C44.8406 47.5639 44.541 47.2761 44.3274 46.9142C44.1138 46.5463 44.007 46.128 44.007 45.6593C44.007 45.2974 44.0663 44.9651 44.185 44.6625C44.3037 44.3599 44.4698 44.0988 44.6834 43.8793C44.897 43.6538 45.1492 43.4818 45.4399 43.3631C45.7366 43.2385 46.0599 43.1762 46.41 43.1762C46.7423 43.1762 47.0449 43.2355 47.3178 43.3542C47.5967 43.4729 47.837 43.639 48.0387 43.8526C48.2404 44.0662 48.3947 44.3184 48.5015 44.6091C48.6083 44.8998 48.6558 45.2173 48.6439 45.5614L48.635 45.9441H44.8703L44.6656 45.1431H47.478L47.3267 45.3122V45.1342C47.3148 44.9859 47.2674 44.8553 47.1843 44.7426C47.1072 44.6239 47.0033 44.532 46.8728 44.4667C46.7423 44.4014 46.5939 44.3688 46.4278 44.3688C46.1964 44.3688 45.9976 44.4163 45.8315 44.5112C45.6713 44.6002 45.5497 44.7337 45.4666 44.9117C45.3835 45.0838 45.342 45.2974 45.342 45.5525C45.342 45.8136 45.3954 46.042 45.5022 46.2378C45.6149 46.4277 45.7751 46.576 45.9828 46.6828C46.1964 46.7896 46.4486 46.843 46.7393 46.843C46.941 46.843 47.119 46.8133 47.2733 46.754C47.4335 46.6947 47.6056 46.5938 47.7895 46.4514L48.457 47.3948C48.2731 47.555 48.0773 47.6855 47.8696 47.7864C47.6619 47.8873 47.4483 47.9614 47.2288 48.0089C47.0152 48.0623 46.8016 48.089 46.588 48.089ZM49.5511 48V43.2741H50.9039L50.9484 44.2353L50.6636 44.3421C50.7289 44.1285 50.8446 43.9357 51.0107 43.7636C51.1828 43.5856 51.3875 43.4432 51.6248 43.3364C51.8622 43.2296 52.1114 43.1762 52.3724 43.1762C52.7284 43.1762 53.0281 43.2504 53.2713 43.3987C53.5146 43.5411 53.6985 43.7577 53.8231 44.0484C53.9477 44.3332 54.01 44.6833 54.01 45.0986V48H52.5771V45.2143C52.5771 45.0244 52.5504 44.8672 52.497 44.7426C52.4436 44.618 52.3606 44.526 52.2478 44.4667C52.141 44.4014 52.0075 44.3718 51.8473 44.3777C51.7227 44.3777 51.607 44.3985 51.5002 44.44C51.3934 44.4756 51.3015 44.532 51.2243 44.6091C51.1472 44.6803 51.0849 44.7634 51.0374 44.8583C50.9959 44.9532 50.9751 45.0571 50.9751 45.1698V48H50.272C50.1059 48 49.9635 48 49.8448 48C49.7262 48 49.6283 48 49.5511 48ZM57.2743 48.089C56.8174 48.089 56.408 47.9822 56.0461 47.7686C55.6841 47.555 55.3964 47.2643 55.1828 46.8964C54.9751 46.5226 54.8713 46.1013 54.8713 45.6326C54.8713 45.1639 54.9751 44.7456 55.1828 44.3777C55.3964 44.0039 55.6841 43.7102 56.0461 43.4966C56.408 43.283 56.8174 43.1762 57.2743 43.1762C57.6955 43.1762 58.0812 43.2504 58.4313 43.3987C58.7873 43.547 59.0691 43.7547 59.2768 44.0217L58.5025 44.9473C58.4194 44.8524 58.3215 44.7634 58.2088 44.6803C58.096 44.5972 57.9714 44.532 57.835 44.4845C57.6985 44.437 57.5561 44.4133 57.4078 44.4133C57.1823 44.4133 56.9835 44.4667 56.8115 44.5735C56.6394 44.6744 56.5059 44.8168 56.411 45.0007C56.316 45.1846 56.2686 45.3953 56.2686 45.6326C56.2686 45.8581 56.316 46.0628 56.411 46.2467C56.5118 46.4306 56.6483 46.576 56.8204 46.6828C56.9924 46.7896 57.1882 46.843 57.4078 46.843C57.562 46.843 57.7044 46.8252 57.835 46.7896C57.9655 46.7481 58.0842 46.6887 58.191 46.6116C58.3037 46.5345 58.4075 46.4395 58.5025 46.3268L59.2679 47.2613C59.0661 47.5164 58.7843 47.7182 58.4224 47.8665C58.0664 48.0148 57.6837 48.089 57.2743 48.089ZM62.3021 48.089C61.7799 48.089 61.326 47.9852 60.9404 47.7775C60.5547 47.5639 60.2551 47.2761 60.0415 46.9142C59.8279 46.5463 59.7211 46.128 59.7211 45.6593C59.7211 45.2974 59.7804 44.9651 59.8991 44.6625C60.0177 44.3599 60.1839 44.0988 60.3975 43.8793C60.6111 43.6538 60.8632 43.4818 61.154 43.3631C61.4506 43.2385 61.774 43.1762 62.1241 43.1762C62.4563 43.1762 62.7589 43.2355 63.0319 43.3542C63.3107 43.4729 63.551 43.639 63.7528 43.8526C63.9545 44.0662 64.1088 44.3184 64.2156 44.6091C64.3224 44.8998 64.3698 45.2173 64.358 45.5614L64.3491 45.9441H60.5844L60.3797 45.1431H63.1921L63.0408 45.3122V45.1342C63.0289 44.9859 62.9814 44.8553 62.8984 44.7426C62.8212 44.6239 62.7174 44.532 62.5869 44.4667C62.4563 44.4014 62.308 44.3688 62.1419 44.3688C61.9105 44.3688 61.7117 44.4163 61.5456 44.5112C61.3854 44.6002 61.2637 44.7337 61.1807 44.9117C61.0976 45.0838 61.0561 45.2974 61.0561 45.5525C61.0561 45.8136 61.1095 46.042 61.2163 46.2378C61.329 46.4277 61.4892 46.576 61.6969 46.6828C61.9105 46.7896 62.1626 46.843 62.4534 46.843C62.6551 46.843 62.8331 46.8133 62.9874 46.754C63.1476 46.6947 63.3196 46.5938 63.5036 46.4514L64.1711 47.3948C63.9871 47.555 63.7913 47.6855 63.5837 47.7864C63.376 47.8873 63.1624 47.9614 62.9429 48.0089C62.7293 48.0623 62.5157 48.089 62.3021 48.089ZM70.3321 48.089C69.9227 48.089 69.5518 48.0415 69.2196 47.9466C68.8932 47.8457 68.6025 47.7033 68.3474 47.5194C68.0922 47.3295 67.8638 47.107 67.6621 46.8519L68.5788 45.8106C68.8754 46.2081 69.1721 46.4751 69.4688 46.6116C69.7714 46.7481 70.0829 46.8163 70.4033 46.8163C70.5635 46.8163 70.7088 46.7955 70.8394 46.754C70.9699 46.7125 71.0708 46.6531 71.142 46.576C71.2132 46.4929 71.2488 46.3921 71.2488 46.2734C71.2488 46.1844 71.225 46.1043 71.1776 46.0331C71.136 45.9619 71.0767 45.8996 70.9996 45.8462C70.9224 45.7928 70.8305 45.7453 70.7237 45.7038C70.6169 45.6563 70.5041 45.6178 70.3855 45.5881C70.2668 45.5525 70.1452 45.5228 70.0206 45.4991C69.6764 45.422 69.3768 45.327 69.1217 45.2143C68.8665 45.1016 68.6529 44.9651 68.4809 44.8049C68.3147 44.6388 68.1901 44.4519 68.1071 44.2442C68.024 44.0306 67.9825 43.7933 67.9825 43.5322C67.9825 43.2533 68.0448 42.9982 68.1694 42.7668C68.2999 42.5295 68.472 42.3277 68.6856 42.1616C68.9051 41.9895 69.1573 41.859 69.4421 41.77C69.7269 41.6751 70.0235 41.6276 70.3321 41.6276C70.7415 41.6276 71.0915 41.6721 71.3823 41.7611C71.6789 41.8442 71.9311 41.9658 72.1388 42.126C72.3524 42.2862 72.5333 42.479 72.6817 42.7045L71.7472 43.6034C71.6226 43.4491 71.4861 43.3216 71.3378 43.2207C71.1954 43.1198 71.0411 43.0427 70.875 42.9893C70.7148 42.9359 70.5486 42.9092 70.3766 42.9092C70.1986 42.9092 70.0443 42.9329 69.9138 42.9804C69.7892 43.0219 69.6913 43.0842 69.6201 43.1673C69.5489 43.2444 69.5133 43.3394 69.5133 43.4521C69.5133 43.553 69.5429 43.639 69.6023 43.7102C69.6616 43.7814 69.7417 43.8467 69.8426 43.906C69.9434 43.9594 70.0591 44.0069 70.1897 44.0484C70.3202 44.084 70.4567 44.1137 70.5991 44.1374C70.9254 44.2027 71.2191 44.2887 71.4802 44.3955C71.7472 44.5023 71.9756 44.6328 72.1655 44.7871C72.3613 44.9414 72.5096 45.1253 72.6105 45.3389C72.7173 45.5466 72.7707 45.7898 72.7707 46.0687C72.7707 46.5018 72.6639 46.8697 72.4503 47.1723C72.2426 47.469 71.9548 47.6974 71.587 47.8576C71.225 48.0119 70.8067 48.089 70.3321 48.089ZM74.1483 48V42.0815H75.5723V48H74.1483ZM73.3117 44.5201V43.2741H76.489V44.5201H73.3117ZM78.9137 48.0979C78.5636 48.0979 78.264 48.0237 78.0148 47.8754C77.7715 47.7211 77.5817 47.5016 77.4452 47.2168C77.3147 46.932 77.2494 46.5908 77.2494 46.1933V43.2741H78.6823V45.9975C78.6823 46.1874 78.712 46.3505 78.7713 46.487C78.8306 46.6235 78.9196 46.7303 79.0383 46.8074C79.157 46.8786 79.2994 46.9142 79.4655 46.9142C79.5901 46.9142 79.7028 46.8934 79.8037 46.8519C79.9105 46.8104 79.9995 46.754 80.0707 46.6828C80.1478 46.6057 80.2072 46.5196 80.2487 46.4247C80.2902 46.3238 80.311 46.2141 80.311 46.0954V43.2741H81.7439V48H80.4L80.3377 47.0299L80.6047 46.9231C80.5335 47.1486 80.4148 47.3503 80.2487 47.5283C80.0826 47.7004 79.8838 47.8398 79.6524 47.9466C79.421 48.0475 79.1748 48.0979 78.9137 48.0979ZM84.8019 48.0979C84.3925 48.0979 84.0276 47.9941 83.7072 47.7864C83.3928 47.5728 83.1436 47.2821 82.9596 46.9142C82.7757 46.5404 82.6837 46.1162 82.6837 45.6415C82.6837 45.1668 82.7757 44.7456 82.9596 44.3777C83.1436 44.0039 83.3957 43.7102 83.7161 43.4966C84.0365 43.283 84.4044 43.1762 84.8197 43.1762C85.0333 43.1762 85.238 43.2088 85.4338 43.2741C85.6296 43.3394 85.8076 43.4284 85.9678 43.5411C86.128 43.6538 86.2586 43.7844 86.3594 43.9327C86.4603 44.0751 86.5196 44.2234 86.5374 44.3777L86.1992 44.4578V41.414H87.6321V48H86.306L86.2259 46.9231L86.5107 46.9676C86.4929 47.1159 86.4336 47.2583 86.3327 47.3948C86.2378 47.5313 86.1132 47.6529 85.9589 47.7597C85.8047 47.8606 85.6267 47.9407 85.4249 48C85.2291 48.0653 85.0215 48.0979 84.8019 48.0979ZM85.1668 46.9142C85.3864 46.9142 85.5762 46.8608 85.7364 46.754C85.8966 46.6472 86.0183 46.4989 86.1013 46.309C86.1903 46.1191 86.2348 45.8966 86.2348 45.6415C86.2348 45.3804 86.1903 45.155 86.1013 44.9651C86.0183 44.7752 85.8966 44.6269 85.7364 44.5201C85.5762 44.4133 85.3864 44.3599 85.1668 44.3599C84.9473 44.3599 84.7574 44.4133 84.5972 44.5201C84.443 44.6269 84.3213 44.7752 84.2323 44.9651C84.1433 45.155 84.0988 45.3804 84.0988 45.6415C84.0988 45.8966 84.1433 46.1191 84.2323 46.309C84.3213 46.4989 84.443 46.6472 84.5972 46.754C84.7574 46.8608 84.9473 46.9142 85.1668 46.9142ZM88.9164 48V43.2741H90.3404V48H88.9164ZM89.6284 42.3396C89.3614 42.3396 89.1508 42.2773 88.9965 42.1527C88.8482 42.0222 88.774 41.8382 88.774 41.6009C88.774 41.3873 88.8511 41.2123 89.0054 41.0758C89.1597 40.9393 89.3673 40.8711 89.6284 40.8711C89.8954 40.8711 90.1031 40.9364 90.2514 41.0669C90.3997 41.1915 90.4739 41.3695 90.4739 41.6009C90.4739 41.8204 90.3968 41.9984 90.2425 42.1349C90.0942 42.2714 89.8895 42.3396 89.6284 42.3396ZM93.9034 48.089C93.4109 48.089 92.9718 47.9822 92.5862 47.7686C92.2064 47.555 91.9038 47.2643 91.6784 46.8964C91.4588 46.5285 91.3491 46.1073 91.3491 45.6326C91.3491 45.1579 91.4588 44.7367 91.6784 44.3688C91.9038 44.0009 92.2064 43.7102 92.5862 43.4966C92.9718 43.283 93.4109 43.1762 93.9034 43.1762C94.3958 43.1762 94.8319 43.283 95.2117 43.4966C95.5973 43.7102 95.8999 44.0009 96.1195 44.3688C96.339 44.7367 96.4488 45.1579 96.4488 45.6326C96.4488 46.1073 96.339 46.5285 96.1195 46.8964C95.8999 47.2643 95.5973 47.555 95.2117 47.7686C94.8319 47.9822 94.3958 48.089 93.9034 48.089ZM93.9034 46.8608C94.117 46.8608 94.3068 46.8074 94.473 46.7006C94.6391 46.5938 94.7696 46.4484 94.8646 46.2645C94.9595 46.0806 95.004 45.8699 94.9981 45.6326C95.004 45.3953 94.9595 45.1846 94.8646 45.0007C94.7696 44.8108 94.6391 44.6625 94.473 44.5557C94.3068 44.4489 94.117 44.3955 93.9034 44.3955C93.6898 44.3955 93.4969 44.4489 93.3249 44.5557C93.1587 44.6625 93.0282 44.8108 92.9333 45.0007C92.8383 45.1846 92.7938 45.3953 92.7998 45.6326C92.7938 45.8699 92.8383 46.0806 92.9333 46.2645C93.0282 46.4484 93.1587 46.5938 93.3249 46.7006C93.4969 46.8074 93.6898 46.8608 93.9034 46.8608Z" fill="black"/>
</svg>
