<svg width="100" height="100" viewBox="0 0 100 100" fill="none" xmlns="http://www.w3.org/2000/svg">
<g clip-path="url(#clip0_23_151)">
<rect x="0.225355" y="0.144342" width="10.5" height="9.39899" transform="matrix(0.906308 -0.422618 -0.0048869 0.999988 0.0701898 4.74404)" fill="black" stroke="white" stroke-width="0.5"/>
<path d="M16.2416 0.355654L16.1957 9.75496L6.67942 14.1924L6.72536 4.79315L16.2416 0.355654Z" fill="black" stroke="white" stroke-width="0.5"/>
<rect x="0.225355" y="0.144342" width="10.5" height="9.39899" transform="matrix(0.906308 -0.422618 -0.0048869 0.999988 13.0702 4.74404)" fill="black" stroke="white" stroke-width="0.5"/>
<path d="M27.6134 9.089C27.1447 9.089 26.7115 9.01187 26.314 8.8576C25.9224 8.6974 25.5812 8.4749 25.2905 8.1901C24.9998 7.89937 24.7743 7.5582 24.6141 7.1666C24.4598 6.76907 24.3827 6.33297 24.3827 5.8583C24.3827 5.3955 24.4658 4.9683 24.6319 4.5767C24.798 4.1851 25.0265 3.8469 25.3172 3.5621C25.6139 3.27137 25.961 3.0459 26.3585 2.8857C26.762 2.7255 27.201 2.6454 27.6757 2.6454C27.9724 2.6454 28.2631 2.68397 28.5479 2.7611C28.8327 2.83823 29.0967 2.95393 29.34 3.1082C29.5892 3.25653 29.8028 3.43453 29.9808 3.6422L29.0552 4.7013C28.9306 4.57077 28.7971 4.45803 28.6547 4.3631C28.5182 4.26223 28.3669 4.1851 28.2008 4.1317C28.0347 4.0783 27.8567 4.0516 27.6668 4.0516C27.4295 4.0516 27.204 4.0961 26.9904 4.1851C26.7827 4.26817 26.5988 4.3898 26.4386 4.55C26.2843 4.70427 26.1627 4.89413 26.0737 5.1196C25.9847 5.34507 25.9402 5.59723 25.9402 5.8761C25.9402 6.14903 25.9847 6.39823 26.0737 6.6237C26.1627 6.84323 26.2873 7.0331 26.4475 7.1933C26.6077 7.3535 26.8005 7.47513 27.026 7.5582C27.2574 7.64127 27.5125 7.6828 27.7914 7.6828C27.9813 7.6828 28.1622 7.6561 28.3343 7.6027C28.5064 7.5493 28.6636 7.4781 28.806 7.3891C28.9543 7.29417 29.0849 7.18737 29.1976 7.0687L29.9274 8.2257C29.7791 8.39183 29.5803 8.54017 29.3311 8.6707C29.0878 8.80123 28.8149 8.90507 28.5123 8.9822C28.2156 9.0534 27.916 9.089 27.6134 9.089ZM33.0365 9.089C32.544 9.089 32.105 8.9822 31.7193 8.7686C31.3396 8.555 31.037 8.26427 30.8115 7.8964C30.592 7.52853 30.4822 7.10727 30.4822 6.6326C30.4822 6.15793 30.592 5.73667 30.8115 5.3688C31.037 5.00093 31.3396 4.7102 31.7193 4.4966C32.105 4.283 32.544 4.1762 33.0365 4.1762C33.529 4.1762 33.9651 4.283 34.3448 4.4966C34.7305 4.7102 35.0331 5.00093 35.2526 5.3688C35.4721 5.73667 35.5819 6.15793 35.5819 6.6326C35.5819 7.10727 35.4721 7.52853 35.2526 7.8964C35.0331 8.26427 34.7305 8.555 34.3448 8.7686C33.9651 8.9822 33.529 9.089 33.0365 9.089ZM33.0365 7.8608C33.2501 7.8608 33.44 7.8074 33.6061 7.7006C33.7722 7.5938 33.9028 7.44843 33.9977 7.2645C34.0926 7.08057 34.1371 6.86993 34.1312 6.6326C34.1371 6.39527 34.0926 6.18463 33.9977 6.0007C33.9028 5.81083 33.7722 5.6625 33.6061 5.5557C33.44 5.4489 33.2501 5.3955 33.0365 5.3955C32.8229 5.3955 32.6301 5.4489 32.458 5.5557C32.2919 5.6625 32.1613 5.81083 32.0664 6.0007C31.9715 6.18463 31.927 6.39527 31.9329 6.6326C31.927 6.86993 31.9715 7.08057 32.0664 7.2645C32.1613 7.44843 32.2919 7.5938 32.458 7.7006C32.6301 7.8074 32.8229 7.8608 33.0365 7.8608ZM38.302 9.0979C37.8926 9.0979 37.5277 8.99407 37.2073 8.7864C36.8928 8.5728 36.6436 8.28207 36.4597 7.9142C36.2757 7.5404 36.1838 7.11617 36.1838 6.6415C36.1838 6.16683 36.2757 5.74557 36.4597 5.3777C36.6436 5.0039 36.8958 4.7102 37.2162 4.4966C37.5366 4.283 37.9044 4.1762 38.3198 4.1762C38.5334 4.1762 38.7381 4.20883 38.9339 4.2741C39.1297 4.33937 39.3077 4.42837 39.4679 4.5411C39.6281 4.65383 39.7586 4.78437 39.8595 4.9327C39.9603 5.0751 40.0197 5.22343 40.0375 5.3777L39.6993 5.4578V2.414H41.1322V9H39.8061L39.726 7.9231L40.0108 7.9676C39.993 8.11593 39.9336 8.25833 39.8328 8.3948C39.7378 8.53127 39.6132 8.6529 39.459 8.7597C39.3047 8.86057 39.1267 8.94067 38.925 9C38.7292 9.06527 38.5215 9.0979 38.302 9.0979ZM38.6669 7.9142C38.8864 7.9142 39.0763 7.8608 39.2365 7.754C39.3967 7.6472 39.5183 7.49887 39.6014 7.309C39.6904 7.11913 39.7349 6.89663 39.7349 6.6415C39.7349 6.38043 39.6904 6.15497 39.6014 5.9651C39.5183 5.77523 39.3967 5.6269 39.2365 5.5201C39.0763 5.4133 38.8864 5.3599 38.6669 5.3599C38.4473 5.3599 38.2575 5.4133 38.0973 5.5201C37.943 5.6269 37.8214 5.77523 37.7324 5.9651C37.6434 6.15497 37.5989 6.38043 37.5989 6.6415C37.5989 6.89663 37.6434 7.11913 37.7324 7.309C37.8214 7.49887 37.943 7.6472 38.0973 7.754C38.2575 7.8608 38.4473 7.9142 38.6669 7.9142ZM44.588 9.089C44.0659 9.089 43.612 8.98517 43.2263 8.7775C42.8406 8.5639 42.541 8.27613 42.3274 7.9142C42.1138 7.54633 42.007 7.12803 42.007 6.6593C42.007 6.29737 42.0663 5.9651 42.185 5.6625C42.3037 5.3599 42.4698 5.09883 42.6834 4.8793C42.897 4.65383 43.1492 4.48177 43.4399 4.3631C43.7366 4.2385 44.0599 4.1762 44.41 4.1762C44.7423 4.1762 45.0449 4.23553 45.3178 4.3542C45.5967 4.47287 45.837 4.639 46.0387 4.8526C46.2404 5.0662 46.3947 5.31837 46.5015 5.6091C46.6083 5.89983 46.6558 6.21727 46.6439 6.5614L46.635 6.9441H42.8703L42.6656 6.1431H45.478L45.3267 6.3122V6.1342C45.3148 5.98587 45.2674 5.85533 45.1843 5.7426C45.1072 5.62393 45.0033 5.53197 44.8728 5.4667C44.7423 5.40143 44.5939 5.3688 44.4278 5.3688C44.1964 5.3688 43.9976 5.41627 43.8315 5.5112C43.6713 5.6002 43.5497 5.7337 43.4666 5.9117C43.3835 6.08377 43.342 6.29737 43.342 6.5525C43.342 6.81357 43.3954 7.042 43.5022 7.2378C43.6149 7.42767 43.7751 7.576 43.9828 7.6828C44.1964 7.7896 44.4486 7.843 44.7393 7.843C44.941 7.843 45.119 7.81333 45.2733 7.754C45.4335 7.69467 45.6056 7.5938 45.7895 7.4514L46.457 8.3948C46.2731 8.555 46.0773 8.68553 45.8696 8.7864C45.6619 8.88727 45.4483 8.96143 45.2288 9.0089C45.0152 9.0623 44.8016 9.089 44.588 9.089ZM47.5511 9V4.2741H48.9039L48.9484 5.2353L48.6636 5.3421C48.7289 5.1285 48.8446 4.93567 49.0107 4.7636C49.1828 4.5856 49.3875 4.4432 49.6248 4.3364C49.8622 4.2296 50.1114 4.1762 50.3724 4.1762C50.7284 4.1762 51.0281 4.25037 51.2713 4.3987C51.5146 4.5411 51.6985 4.75767 51.8231 5.0484C51.9477 5.3332 52.01 5.68327 52.01 6.0986V9H50.5771V6.2143C50.5771 6.02443 50.5504 5.8672 50.497 5.7426C50.4436 5.618 50.3606 5.52603 50.2478 5.4667C50.141 5.40143 50.0075 5.37177 49.8473 5.3777C49.7227 5.3777 49.607 5.39847 49.5002 5.44C49.3934 5.4756 49.3015 5.53197 49.2243 5.6091C49.1472 5.6803 49.0849 5.76337 49.0374 5.8583C48.9959 5.95323 48.9751 6.05707 48.9751 6.1698V9H48.272C48.1059 9 47.9635 9 47.8448 9C47.7262 9 47.6283 9 47.5511 9ZM55.2743 9.089C54.8174 9.089 54.408 8.9822 54.0461 8.7686C53.6841 8.555 53.3964 8.26427 53.1828 7.8964C52.9751 7.5226 52.8713 7.10133 52.8713 6.6326C52.8713 6.16387 52.9751 5.74557 53.1828 5.3777C53.3964 5.0039 53.6841 4.7102 54.0461 4.4966C54.408 4.283 54.8174 4.1762 55.2743 4.1762C55.6955 4.1762 56.0812 4.25037 56.4313 4.3987C56.7873 4.54703 57.0691 4.7547 57.2768 5.0217L56.5025 5.9473C56.4194 5.85237 56.3215 5.76337 56.2088 5.6803C56.096 5.59723 55.9714 5.53197 55.835 5.4845C55.6985 5.43703 55.5561 5.4133 55.4078 5.4133C55.1823 5.4133 54.9835 5.4667 54.8115 5.5735C54.6394 5.67437 54.5059 5.81677 54.411 6.0007C54.316 6.18463 54.2686 6.39527 54.2686 6.6326C54.2686 6.85807 54.316 7.06277 54.411 7.2467C54.5118 7.43063 54.6483 7.576 54.8204 7.6828C54.9924 7.7896 55.1882 7.843 55.4078 7.843C55.562 7.843 55.7044 7.8252 55.835 7.7896C55.9655 7.74807 56.0842 7.68873 56.191 7.6116C56.3037 7.53447 56.4075 7.43953 56.5025 7.3268L57.2679 8.2613C57.0661 8.51643 56.7843 8.71817 56.4224 8.8665C56.0664 9.01483 55.6837 9.089 55.2743 9.089ZM60.3021 9.089C59.7799 9.089 59.326 8.98517 58.9404 8.7775C58.5547 8.5639 58.2551 8.27613 58.0415 7.9142C57.8279 7.54633 57.7211 7.12803 57.7211 6.6593C57.7211 6.29737 57.7804 5.9651 57.8991 5.6625C58.0177 5.3599 58.1839 5.09883 58.3975 4.8793C58.6111 4.65383 58.8632 4.48177 59.154 4.3631C59.4506 4.2385 59.774 4.1762 60.1241 4.1762C60.4563 4.1762 60.7589 4.23553 61.0319 4.3542C61.3107 4.47287 61.551 4.639 61.7528 4.8526C61.9545 5.0662 62.1088 5.31837 62.2156 5.6091C62.3224 5.89983 62.3698 6.21727 62.358 6.5614L62.3491 6.9441H58.5844L58.3797 6.1431H61.1921L61.0408 6.3122V6.1342C61.0289 5.98587 60.9814 5.85533 60.8984 5.7426C60.8212 5.62393 60.7174 5.53197 60.5869 5.4667C60.4563 5.40143 60.308 5.3688 60.1419 5.3688C59.9105 5.3688 59.7117 5.41627 59.5456 5.5112C59.3854 5.6002 59.2637 5.7337 59.1807 5.9117C59.0976 6.08377 59.0561 6.29737 59.0561 6.5525C59.0561 6.81357 59.1095 7.042 59.2163 7.2378C59.329 7.42767 59.4892 7.576 59.6969 7.6828C59.9105 7.7896 60.1626 7.843 60.4534 7.843C60.6551 7.843 60.8331 7.81333 60.9874 7.754C61.1476 7.69467 61.3196 7.5938 61.5036 7.4514L62.1711 8.3948C61.9871 8.555 61.7913 8.68553 61.5837 8.7864C61.376 8.88727 61.1624 8.96143 60.9429 9.0089C60.7293 9.0623 60.5157 9.089 60.3021 9.089ZM68.3321 9.089C67.9227 9.089 67.5518 9.04153 67.2196 8.9466C66.8932 8.84573 66.6025 8.70333 66.3474 8.5194C66.0922 8.32953 65.8638 8.10703 65.6621 7.8519L66.5788 6.8106C66.8754 7.20813 67.1721 7.47513 67.4688 7.6116C67.7714 7.74807 68.0829 7.8163 68.4033 7.8163C68.5635 7.8163 68.7088 7.79553 68.8394 7.754C68.9699 7.71247 69.0708 7.65313 69.142 7.576C69.2132 7.49293 69.2488 7.39207 69.2488 7.2734C69.2488 7.1844 69.225 7.1043 69.1776 7.0331C69.136 6.9619 69.0767 6.8996 68.9996 6.8462C68.9224 6.7928 68.8305 6.74533 68.7237 6.7038C68.6169 6.65633 68.5041 6.61777 68.3855 6.5881C68.2668 6.5525 68.1452 6.52283 68.0206 6.4991C67.6764 6.42197 67.3768 6.32703 67.1217 6.2143C66.8665 6.10157 66.6529 5.9651 66.4809 5.8049C66.3147 5.63877 66.1901 5.45187 66.1071 5.2442C66.024 5.0306 65.9825 4.79327 65.9825 4.5322C65.9825 4.25333 66.0448 3.9982 66.1694 3.7668C66.2999 3.52947 66.472 3.32773 66.6856 3.1616C66.9051 2.98953 67.1573 2.859 67.4421 2.77C67.7269 2.67507 68.0235 2.6276 68.3321 2.6276C68.7415 2.6276 69.0915 2.6721 69.3823 2.7611C69.6789 2.84417 69.9311 2.9658 70.1388 3.126C70.3524 3.2862 70.5333 3.47903 70.6817 3.7045L69.7472 4.6034C69.6226 4.44913 69.4861 4.32157 69.3378 4.2207C69.1954 4.11983 69.0411 4.0427 68.875 3.9893C68.7148 3.9359 68.5486 3.9092 68.3766 3.9092C68.1986 3.9092 68.0443 3.93293 67.9138 3.9804C67.7892 4.02193 67.6913 4.08423 67.6201 4.1673C67.5489 4.24443 67.5133 4.33937 67.5133 4.4521C67.5133 4.55297 67.5429 4.639 67.6023 4.7102C67.6616 4.7814 67.7417 4.84667 67.8426 4.906C67.9434 4.9594 68.0591 5.00687 68.1897 5.0484C68.3202 5.084 68.4567 5.11367 68.5991 5.1374C68.9254 5.20267 69.2191 5.2887 69.4802 5.3955C69.7472 5.5023 69.9756 5.63283 70.1655 5.7871C70.3613 5.94137 70.5096 6.1253 70.6105 6.3389C70.7173 6.54657 70.7707 6.78983 70.7707 7.0687C70.7707 7.50183 70.6639 7.8697 70.4503 8.1723C70.2426 8.46897 69.9548 8.6974 69.587 8.8576C69.225 9.01187 68.8067 9.089 68.3321 9.089ZM72.1483 9V3.0815H73.5723V9H72.1483ZM71.3117 5.5201V4.2741H74.489V5.5201H71.3117ZM76.9137 9.0979C76.5636 9.0979 76.264 9.02373 76.0148 8.8754C75.7715 8.72113 75.5817 8.5016 75.4452 8.2168C75.3147 7.932 75.2494 7.59083 75.2494 7.1933V4.2741H76.6823V6.9975C76.6823 7.18737 76.712 7.35053 76.7713 7.487C76.8306 7.62347 76.9196 7.73027 77.0383 7.8074C77.157 7.8786 77.2994 7.9142 77.4655 7.9142C77.5901 7.9142 77.7028 7.89343 77.8037 7.8519C77.9105 7.81037 77.9995 7.754 78.0707 7.6828C78.1478 7.60567 78.2072 7.51963 78.2487 7.4247C78.2902 7.32383 78.311 7.21407 78.311 7.0954V4.2741H79.7439V9H78.4L78.3377 8.0299L78.6047 7.9231C78.5335 8.14857 78.4148 8.3503 78.2487 8.5283C78.0826 8.70037 77.8838 8.8398 77.6524 8.9466C77.421 9.04747 77.1748 9.0979 76.9137 9.0979ZM82.8019 9.0979C82.3925 9.0979 82.0276 8.99407 81.7072 8.7864C81.3928 8.5728 81.1436 8.28207 80.9596 7.9142C80.7757 7.5404 80.6837 7.11617 80.6837 6.6415C80.6837 6.16683 80.7757 5.74557 80.9596 5.3777C81.1436 5.0039 81.3957 4.7102 81.7161 4.4966C82.0365 4.283 82.4044 4.1762 82.8197 4.1762C83.0333 4.1762 83.238 4.20883 83.4338 4.2741C83.6296 4.33937 83.8076 4.42837 83.9678 4.5411C84.128 4.65383 84.2586 4.78437 84.3594 4.9327C84.4603 5.0751 84.5196 5.22343 84.5374 5.3777L84.1992 5.4578V2.414H85.6321V9H84.306L84.2259 7.9231L84.5107 7.9676C84.4929 8.11593 84.4336 8.25833 84.3327 8.3948C84.2378 8.53127 84.1132 8.6529 83.9589 8.7597C83.8047 8.86057 83.6267 8.94067 83.4249 9C83.2291 9.06527 83.0215 9.0979 82.8019 9.0979ZM83.1668 7.9142C83.3864 7.9142 83.5762 7.8608 83.7364 7.754C83.8966 7.6472 84.0183 7.49887 84.1013 7.309C84.1903 7.11913 84.2348 6.89663 84.2348 6.6415C84.2348 6.38043 84.1903 6.15497 84.1013 5.9651C84.0183 5.77523 83.8966 5.6269 83.7364 5.5201C83.5762 5.4133 83.3864 5.3599 83.1668 5.3599C82.9473 5.3599 82.7574 5.4133 82.5972 5.5201C82.443 5.6269 82.3213 5.77523 82.2323 5.9651C82.1433 6.15497 82.0988 6.38043 82.0988 6.6415C82.0988 6.89663 82.1433 7.11913 82.2323 7.309C82.3213 7.49887 82.443 7.6472 82.5972 7.754C82.7574 7.8608 82.9473 7.9142 83.1668 7.9142ZM86.9164 9V4.2741H88.3404V9H86.9164ZM87.6284 3.3396C87.3614 3.3396 87.1508 3.2773 86.9965 3.1527C86.8482 3.02217 86.774 2.83823 86.774 2.6009C86.774 2.3873 86.8511 2.21227 87.0054 2.0758C87.1597 1.93933 87.3673 1.8711 87.6284 1.8711C87.8954 1.8711 88.1031 1.93637 88.2514 2.0669C88.3997 2.1915 88.4739 2.3695 88.4739 2.6009C88.4739 2.82043 88.3968 2.99843 88.2425 3.1349C88.0942 3.27137 87.8895 3.3396 87.6284 3.3396ZM91.9034 9.089C91.4109 9.089 90.9718 8.9822 90.5862 8.7686C90.2064 8.555 89.9038 8.26427 89.6784 7.8964C89.4588 7.52853 89.3491 7.10727 89.3491 6.6326C89.3491 6.15793 89.4588 5.73667 89.6784 5.3688C89.9038 5.00093 90.2064 4.7102 90.5862 4.4966C90.9718 4.283 91.4109 4.1762 91.9034 4.1762C92.3958 4.1762 92.8319 4.283 93.2117 4.4966C93.5973 4.7102 93.8999 5.00093 94.1195 5.3688C94.339 5.73667 94.4488 6.15793 94.4488 6.6326C94.4488 7.10727 94.339 7.52853 94.1195 7.8964C93.8999 8.26427 93.5973 8.555 93.2117 8.7686C92.8319 8.9822 92.3958 9.089 91.9034 9.089ZM91.9034 7.8608C92.117 7.8608 92.3068 7.8074 92.473 7.7006C92.6391 7.5938 92.7696 7.44843 92.8646 7.2645C92.9595 7.08057 93.004 6.86993 92.9981 6.6326C93.004 6.39527 92.9595 6.18463 92.8646 6.0007C92.7696 5.81083 92.6391 5.6625 92.473 5.5557C92.3068 5.4489 92.117 5.3955 91.9034 5.3955C91.6898 5.3955 91.4969 5.4489 91.3249 5.5557C91.1587 5.6625 91.0282 5.81083 90.9333 6.0007C90.8383 6.18463 90.7938 6.39527 90.7998 6.6326C90.7938 6.86993 90.8383 7.08057 90.9333 7.2645C91.0282 7.44843 91.1587 7.5938 91.3249 7.7006C91.4969 7.8074 91.6898 7.8608 91.9034 7.8608Z" fill="black"/>
</g>
<defs>
<clipPath id="clip0_23_151">
<rect width="100" height="100" fill="white"/>
</clipPath>
</defs>
</svg>
