<svg width="96" height="14" viewBox="0 0 96 14" fill="none" xmlns="http://www.w3.org/2000/svg">
<g clip-path="url(#clip0_23_151)">
<rect x="0.364107" y="0.239024" width="10.317" height="8.72634" transform="matrix(0.915452 -0.402428 -0.00518386 0.999987 0.0814011 4.62032)" fill="black" stroke="white" stroke-width="0.8"/>
<path d="M16.4441 0.561444L16.3988 9.28691L6.95465 13.4385L6.99988 4.71305L16.4441 0.561444Z" fill="black" stroke="white" stroke-width="0.8"/>
<rect x="0.364107" y="0.239024" width="10.317" height="8.72634" transform="matrix(0.915452 -0.402428 -0.00518386 0.999987 13.3522 4.62032)" fill="black" stroke="white" stroke-width="0.8"/>
<path d="M28.6134 9.089C28.1447 9.089 27.7115 9.01187 27.314 8.8576C26.9224 8.6974 26.5812 8.4749 26.2905 8.1901C25.9998 7.89937 25.7743 7.5582 25.6141 7.1666C25.4598 6.76907 25.3827 6.33297 25.3827 5.8583C25.3827 5.3955 25.4658 4.9683 25.6319 4.5767C25.798 4.1851 26.0265 3.8469 26.3172 3.5621C26.6139 3.27137 26.961 3.0459 27.3585 2.8857C27.762 2.7255 28.201 2.6454 28.6757 2.6454C28.9724 2.6454 29.2631 2.68397 29.5479 2.7611C29.8327 2.83823 30.0967 2.95393 30.34 3.1082C30.5892 3.25653 30.8028 3.43453 30.9808 3.6422L30.0552 4.7013C29.9306 4.57077 29.7971 4.45803 29.6547 4.3631C29.5182 4.26223 29.3669 4.1851 29.2008 4.1317C29.0347 4.0783 28.8567 4.0516 28.6668 4.0516C28.4295 4.0516 28.204 4.0961 27.9904 4.1851C27.7827 4.26817 27.5988 4.3898 27.4386 4.55C27.2843 4.70427 27.1627 4.89413 27.0737 5.1196C26.9847 5.34507 26.9402 5.59723 26.9402 5.8761C26.9402 6.14903 26.9847 6.39823 27.0737 6.6237C27.1627 6.84323 27.2873 7.0331 27.4475 7.1933C27.6077 7.3535 27.8005 7.47513 28.026 7.5582C28.2574 7.64127 28.5125 7.6828 28.7914 7.6828C28.9813 7.6828 29.1622 7.6561 29.3343 7.6027C29.5064 7.5493 29.6636 7.4781 29.806 7.3891C29.9543 7.29417 30.0849 7.18737 30.1976 7.0687L30.9274 8.2257C30.7791 8.39183 30.5803 8.54017 30.3311 8.6707C30.0878 8.80123 29.8149 8.90507 29.5123 8.9822C29.2156 9.0534 28.916 9.089 28.6134 9.089ZM34.0365 9.089C33.544 9.089 33.105 8.9822 32.7193 8.7686C32.3396 8.555 32.037 8.26427 31.8115 7.8964C31.592 7.52853 31.4822 7.10727 31.4822 6.6326C31.4822 6.15793 31.592 5.73667 31.8115 5.3688C32.037 5.00093 32.3396 4.7102 32.7193 4.4966C33.105 4.283 33.544 4.1762 34.0365 4.1762C34.529 4.1762 34.9651 4.283 35.3448 4.4966C35.7305 4.7102 36.0331 5.00093 36.2526 5.3688C36.4721 5.73667 36.5819 6.15793 36.5819 6.6326C36.5819 7.10727 36.4721 7.52853 36.2526 7.8964C36.0331 8.26427 35.7305 8.555 35.3448 8.7686C34.9651 8.9822 34.529 9.089 34.0365 9.089ZM34.0365 7.8608C34.2501 7.8608 34.44 7.8074 34.6061 7.7006C34.7722 7.5938 34.9028 7.44843 34.9977 7.2645C35.0926 7.08057 35.1371 6.86993 35.1312 6.6326C35.1371 6.39527 35.0926 6.18463 34.9977 6.0007C34.9028 5.81083 34.7722 5.6625 34.6061 5.5557C34.44 5.4489 34.2501 5.3955 34.0365 5.3955C33.8229 5.3955 33.6301 5.4489 33.458 5.5557C33.2919 5.6625 33.1613 5.81083 33.0664 6.0007C32.9715 6.18463 32.927 6.39527 32.9329 6.6326C32.927 6.86993 32.9715 7.08057 33.0664 7.2645C33.1613 7.44843 33.2919 7.5938 33.458 7.7006C33.6301 7.8074 33.8229 7.8608 34.0365 7.8608ZM39.302 9.0979C38.8926 9.0979 38.5277 8.99407 38.2073 8.7864C37.8928 8.5728 37.6436 8.28207 37.4597 7.9142C37.2757 7.5404 37.1838 7.11617 37.1838 6.6415C37.1838 6.16683 37.2757 5.74557 37.4597 5.3777C37.6436 5.0039 37.8958 4.7102 38.2162 4.4966C38.5366 4.283 38.9044 4.1762 39.3198 4.1762C39.5334 4.1762 39.7381 4.20883 39.9339 4.2741C40.1297 4.33937 40.3077 4.42837 40.4679 4.5411C40.6281 4.65383 40.7586 4.78437 40.8595 4.9327C40.9603 5.0751 41.0197 5.22343 41.0375 5.3777L40.6993 5.4578V2.414H42.1322V9H40.8061L40.726 7.9231L41.0108 7.9676C40.993 8.11593 40.9336 8.25833 40.8328 8.3948C40.7378 8.53127 40.6132 8.6529 40.459 8.7597C40.3047 8.86057 40.1267 8.94067 39.925 9C39.7292 9.06527 39.5215 9.0979 39.302 9.0979ZM39.6669 7.9142C39.8864 7.9142 40.0763 7.8608 40.2365 7.754C40.3967 7.6472 40.5183 7.49887 40.6014 7.309C40.6904 7.11913 40.7349 6.89663 40.7349 6.6415C40.7349 6.38043 40.6904 6.15497 40.6014 5.9651C40.5183 5.77523 40.3967 5.6269 40.2365 5.5201C40.0763 5.4133 39.8864 5.3599 39.6669 5.3599C39.4473 5.3599 39.2575 5.4133 39.0973 5.5201C38.943 5.6269 38.8214 5.77523 38.7324 5.9651C38.6434 6.15497 38.5989 6.38043 38.5989 6.6415C38.5989 6.89663 38.6434 7.11913 38.7324 7.309C38.8214 7.49887 38.943 7.6472 39.0973 7.754C39.2575 7.8608 39.4473 7.9142 39.6669 7.9142ZM45.588 9.089C45.0659 9.089 44.612 8.98517 44.2263 8.7775C43.8406 8.5639 43.541 8.27613 43.3274 7.9142C43.1138 7.54633 43.007 7.12803 43.007 6.6593C43.007 6.29737 43.0663 5.9651 43.185 5.6625C43.3037 5.3599 43.4698 5.09883 43.6834 4.8793C43.897 4.65383 44.1492 4.48177 44.4399 4.3631C44.7366 4.2385 45.0599 4.1762 45.41 4.1762C45.7423 4.1762 46.0449 4.23553 46.3178 4.3542C46.5967 4.47287 46.837 4.639 47.0387 4.8526C47.2404 5.0662 47.3947 5.31837 47.5015 5.6091C47.6083 5.89983 47.6558 6.21727 47.6439 6.5614L47.635 6.9441H43.8703L43.6656 6.1431H46.478L46.3267 6.3122V6.1342C46.3148 5.98587 46.2674 5.85533 46.1843 5.7426C46.1072 5.62393 46.0033 5.53197 45.8728 5.4667C45.7423 5.40143 45.5939 5.3688 45.4278 5.3688C45.1964 5.3688 44.9976 5.41627 44.8315 5.5112C44.6713 5.6002 44.5497 5.7337 44.4666 5.9117C44.3835 6.08377 44.342 6.29737 44.342 6.5525C44.342 6.81357 44.3954 7.042 44.5022 7.2378C44.6149 7.42767 44.7751 7.576 44.9828 7.6828C45.1964 7.7896 45.4486 7.843 45.7393 7.843C45.941 7.843 46.119 7.81333 46.2733 7.754C46.4335 7.69467 46.6056 7.5938 46.7895 7.4514L47.457 8.3948C47.2731 8.555 47.0773 8.68553 46.8696 8.7864C46.6619 8.88727 46.4483 8.96143 46.2288 9.0089C46.0152 9.0623 45.8016 9.089 45.588 9.089ZM48.5511 9V4.2741H49.9039L49.9484 5.2353L49.6636 5.3421C49.7289 5.1285 49.8446 4.93567 50.0107 4.7636C50.1828 4.5856 50.3875 4.4432 50.6248 4.3364C50.8622 4.2296 51.1114 4.1762 51.3724 4.1762C51.7284 4.1762 52.0281 4.25037 52.2713 4.3987C52.5146 4.5411 52.6985 4.75767 52.8231 5.0484C52.9477 5.3332 53.01 5.68327 53.01 6.0986V9H51.5771V6.2143C51.5771 6.02443 51.5504 5.8672 51.497 5.7426C51.4436 5.618 51.3606 5.52603 51.2478 5.4667C51.141 5.40143 51.0075 5.37177 50.8473 5.3777C50.7227 5.3777 50.607 5.39847 50.5002 5.44C50.3934 5.4756 50.3015 5.53197 50.2243 5.6091C50.1472 5.6803 50.0849 5.76337 50.0374 5.8583C49.9959 5.95323 49.9751 6.05707 49.9751 6.1698V9H49.272C49.1059 9 48.9635 9 48.8448 9C48.7262 9 48.6283 9 48.5511 9ZM56.2743 9.089C55.8174 9.089 55.408 8.9822 55.0461 8.7686C54.6841 8.555 54.3964 8.26427 54.1828 7.8964C53.9751 7.5226 53.8713 7.10133 53.8713 6.6326C53.8713 6.16387 53.9751 5.74557 54.1828 5.3777C54.3964 5.0039 54.6841 4.7102 55.0461 4.4966C55.408 4.283 55.8174 4.1762 56.2743 4.1762C56.6955 4.1762 57.0812 4.25037 57.4313 4.3987C57.7873 4.54703 58.0691 4.7547 58.2768 5.0217L57.5025 5.9473C57.4194 5.85237 57.3215 5.76337 57.2088 5.6803C57.096 5.59723 56.9714 5.53197 56.835 5.4845C56.6985 5.43703 56.5561 5.4133 56.4078 5.4133C56.1823 5.4133 55.9835 5.4667 55.8115 5.5735C55.6394 5.67437 55.5059 5.81677 55.411 6.0007C55.316 6.18463 55.2686 6.39527 55.2686 6.6326C55.2686 6.85807 55.316 7.06277 55.411 7.2467C55.5118 7.43063 55.6483 7.576 55.8204 7.6828C55.9924 7.7896 56.1882 7.843 56.4078 7.843C56.562 7.843 56.7044 7.8252 56.835 7.7896C56.9655 7.74807 57.0842 7.68873 57.191 7.6116C57.3037 7.53447 57.4075 7.43953 57.5025 7.3268L58.2679 8.2613C58.0661 8.51643 57.7843 8.71817 57.4224 8.8665C57.0664 9.01483 56.6837 9.089 56.2743 9.089ZM61.3021 9.089C60.7799 9.089 60.326 8.98517 59.9404 8.7775C59.5547 8.5639 59.2551 8.27613 59.0415 7.9142C58.8279 7.54633 58.7211 7.12803 58.7211 6.6593C58.7211 6.29737 58.7804 5.9651 58.8991 5.6625C59.0177 5.3599 59.1839 5.09883 59.3975 4.8793C59.6111 4.65383 59.8632 4.48177 60.154 4.3631C60.4506 4.2385 60.774 4.1762 61.1241 4.1762C61.4563 4.1762 61.7589 4.23553 62.0319 4.3542C62.3107 4.47287 62.551 4.639 62.7528 4.8526C62.9545 5.0662 63.1088 5.31837 63.2156 5.6091C63.3224 5.89983 63.3698 6.21727 63.358 6.5614L63.3491 6.9441H59.5844L59.3797 6.1431H62.1921L62.0408 6.3122V6.1342C62.0289 5.98587 61.9814 5.85533 61.8984 5.7426C61.8212 5.62393 61.7174 5.53197 61.5869 5.4667C61.4563 5.40143 61.308 5.3688 61.1419 5.3688C60.9105 5.3688 60.7117 5.41627 60.5456 5.5112C60.3854 5.6002 60.2637 5.7337 60.1807 5.9117C60.0976 6.08377 60.0561 6.29737 60.0561 6.5525C60.0561 6.81357 60.1095 7.042 60.2163 7.2378C60.329 7.42767 60.4892 7.576 60.6969 7.6828C60.9105 7.7896 61.1626 7.843 61.4534 7.843C61.6551 7.843 61.8331 7.81333 61.9874 7.754C62.1476 7.69467 62.3196 7.5938 62.5036 7.4514L63.1711 8.3948C62.9871 8.555 62.7913 8.68553 62.5837 8.7864C62.376 8.88727 62.1624 8.96143 61.9429 9.0089C61.7293 9.0623 61.5157 9.089 61.3021 9.089ZM69.3321 9.089C68.9227 9.089 68.5518 9.04153 68.2196 8.9466C67.8932 8.84573 67.6025 8.70333 67.3474 8.5194C67.0922 8.32953 66.8638 8.10703 66.6621 7.8519L67.5788 6.8106C67.8754 7.20813 68.1721 7.47513 68.4688 7.6116C68.7714 7.74807 69.0829 7.8163 69.4033 7.8163C69.5635 7.8163 69.7088 7.79553 69.8394 7.754C69.9699 7.71247 70.0708 7.65313 70.142 7.576C70.2132 7.49293 70.2488 7.39207 70.2488 7.2734C70.2488 7.1844 70.225 7.1043 70.1776 7.0331C70.136 6.9619 70.0767 6.8996 69.9996 6.8462C69.9224 6.7928 69.8305 6.74533 69.7237 6.7038C69.6169 6.65633 69.5041 6.61777 69.3855 6.5881C69.2668 6.5525 69.1452 6.52283 69.0206 6.4991C68.6764 6.42197 68.3768 6.32703 68.1217 6.2143C67.8665 6.10157 67.6529 5.9651 67.4809 5.8049C67.3147 5.63877 67.1901 5.45187 67.1071 5.2442C67.024 5.0306 66.9825 4.79327 66.9825 4.5322C66.9825 4.25333 67.0448 3.9982 67.1694 3.7668C67.2999 3.52947 67.472 3.32773 67.6856 3.1616C67.9051 2.98953 68.1573 2.859 68.4421 2.77C68.7269 2.67507 69.0235 2.6276 69.3321 2.6276C69.7415 2.6276 70.0915 2.6721 70.3823 2.7611C70.6789 2.84417 70.9311 2.9658 71.1388 3.126C71.3524 3.2862 71.5333 3.47903 71.6817 3.7045L70.7472 4.6034C70.6226 4.44913 70.4861 4.32157 70.3378 4.2207C70.1954 4.11983 70.0411 4.0427 69.875 3.9893C69.7148 3.9359 69.5486 3.9092 69.3766 3.9092C69.1986 3.9092 69.0443 3.93293 68.9138 3.9804C68.7892 4.02193 68.6913 4.08423 68.6201 4.1673C68.5489 4.24443 68.5133 4.33937 68.5133 4.4521C68.5133 4.55297 68.5429 4.639 68.6023 4.7102C68.6616 4.7814 68.7417 4.84667 68.8426 4.906C68.9434 4.9594 69.0591 5.00687 69.1897 5.0484C69.3202 5.084 69.4567 5.11367 69.5991 5.1374C69.9254 5.20267 70.2191 5.2887 70.4802 5.3955C70.7472 5.5023 70.9756 5.63283 71.1655 5.7871C71.3613 5.94137 71.5096 6.1253 71.6105 6.3389C71.7173 6.54657 71.7707 6.78983 71.7707 7.0687C71.7707 7.50183 71.6639 7.8697 71.4503 8.1723C71.2426 8.46897 70.9548 8.6974 70.587 8.8576C70.225 9.01187 69.8067 9.089 69.3321 9.089ZM73.1483 9V3.0815H74.5723V9H73.1483ZM72.3117 5.5201V4.2741H75.489V5.5201H72.3117ZM77.9137 9.0979C77.5636 9.0979 77.264 9.02373 77.0148 8.8754C76.7715 8.72113 76.5817 8.5016 76.4452 8.2168C76.3147 7.932 76.2494 7.59083 76.2494 7.1933V4.2741H77.6823V6.9975C77.6823 7.18737 77.712 7.35053 77.7713 7.487C77.8306 7.62347 77.9196 7.73027 78.0383 7.8074C78.157 7.8786 78.2994 7.9142 78.4655 7.9142C78.5901 7.9142 78.7028 7.89343 78.8037 7.8519C78.9105 7.81037 78.9995 7.754 79.0707 7.6828C79.1478 7.60567 79.2072 7.51963 79.2487 7.4247C79.2902 7.32383 79.311 7.21407 79.311 7.0954V4.2741H80.7439V9H79.4L79.3377 8.0299L79.6047 7.9231C79.5335 8.14857 79.4148 8.3503 79.2487 8.5283C79.0826 8.70037 78.8838 8.8398 78.6524 8.9466C78.421 9.04747 78.1748 9.0979 77.9137 9.0979ZM83.8019 9.0979C83.3925 9.0979 83.0276 8.99407 82.7072 8.7864C82.3928 8.5728 82.1436 8.28207 81.9596 7.9142C81.7757 7.5404 81.6837 7.11617 81.6837 6.6415C81.6837 6.16683 81.7757 5.74557 81.9596 5.3777C82.1436 5.0039 82.3957 4.7102 82.7161 4.4966C83.0365 4.283 83.4044 4.1762 83.8197 4.1762C84.0333 4.1762 84.238 4.20883 84.4338 4.2741C84.6296 4.33937 84.8076 4.42837 84.9678 4.5411C85.128 4.65383 85.2586 4.78437 85.3594 4.9327C85.4603 5.0751 85.5196 5.22343 85.5374 5.3777L85.1992 5.4578V2.414H86.6321V9H85.306L85.2259 7.9231L85.5107 7.9676C85.4929 8.11593 85.4336 8.25833 85.3327 8.3948C85.2378 8.53127 85.1132 8.6529 84.9589 8.7597C84.8047 8.86057 84.6267 8.94067 84.4249 9C84.2291 9.06527 84.0215 9.0979 83.8019 9.0979ZM84.1668 7.9142C84.3864 7.9142 84.5762 7.8608 84.7364 7.754C84.8966 7.6472 85.0183 7.49887 85.1013 7.309C85.1903 7.11913 85.2348 6.89663 85.2348 6.6415C85.2348 6.38043 85.1903 6.15497 85.1013 5.9651C85.0183 5.77523 84.8966 5.6269 84.7364 5.5201C84.5762 5.4133 84.3864 5.3599 84.1668 5.3599C83.9473 5.3599 83.7574 5.4133 83.5972 5.5201C83.443 5.6269 83.3213 5.77523 83.2323 5.9651C83.1433 6.15497 83.0988 6.38043 83.0988 6.6415C83.0988 6.89663 83.1433 7.11913 83.2323 7.309C83.3213 7.49887 83.443 7.6472 83.5972 7.754C83.7574 7.8608 83.9473 7.9142 84.1668 7.9142ZM87.9164 9V4.2741H89.3404V9H87.9164ZM88.6284 3.3396C88.3614 3.3396 88.1508 3.2773 87.9965 3.1527C87.8482 3.02217 87.774 2.83823 87.774 2.6009C87.774 2.3873 87.8511 2.21227 88.0054 2.0758C88.1597 1.93933 88.3673 1.8711 88.6284 1.8711C88.8954 1.8711 89.1031 1.93637 89.2514 2.0669C89.3997 2.1915 89.4739 2.3695 89.4739 2.6009C89.4739 2.82043 89.3968 2.99843 89.2425 3.1349C89.0942 3.27137 88.8895 3.3396 88.6284 3.3396ZM92.9034 9.089C92.4109 9.089 91.9718 8.9822 91.5862 8.7686C91.2064 8.555 90.9038 8.26427 90.6784 7.8964C90.4588 7.52853 90.3491 7.10727 90.3491 6.6326C90.3491 6.15793 90.4588 5.73667 90.6784 5.3688C90.9038 5.00093 91.2064 4.7102 91.5862 4.4966C91.9718 4.283 92.4109 4.1762 92.9034 4.1762C93.3958 4.1762 93.8319 4.283 94.2117 4.4966C94.5973 4.7102 94.8999 5.00093 95.1195 5.3688C95.339 5.73667 95.4488 6.15793 95.4488 6.6326C95.4488 7.10727 95.339 7.52853 95.1195 7.8964C94.8999 8.26427 94.5973 8.555 94.2117 8.7686C93.8319 8.9822 93.3958 9.089 92.9034 9.089ZM92.9034 7.8608C93.117 7.8608 93.3068 7.8074 93.473 7.7006C93.6391 7.5938 93.7696 7.44843 93.8646 7.2645C93.9595 7.08057 94.004 6.86993 93.9981 6.6326C94.004 6.39527 93.9595 6.18463 93.8646 6.0007C93.7696 5.81083 93.6391 5.6625 93.473 5.5557C93.3068 5.4489 93.117 5.3955 92.9034 5.3955C92.6898 5.3955 92.4969 5.4489 92.3249 5.5557C92.1587 5.6625 92.0282 5.81083 91.9333 6.0007C91.8383 6.18463 91.7938 6.39527 91.7998 6.6326C91.7938 6.86993 91.8383 7.08057 91.9333 7.2645C92.0282 7.44843 92.1587 7.5938 92.3249 7.7006C92.4969 7.8074 92.6898 7.8608 92.9034 7.8608Z" fill="black"/>
</g>
<defs>
<clipPath id="clip0_23_151">
<rect width="96" height="14" fill="white"/>
</clipPath>
</defs>
</svg>
